<?xml version="1.0" encoding="UTF-8" standalone="no"?>
<!DOCTYPE svg PUBLIC "-//W3C//DTD SVG 1.1//EN"
 "http://www.w3.org/Graphics/SVG/1.1/DTD/svg11.dtd">
<!-- Generated by graphviz version 2.40.1 (20161225.0304)
 -->
<!-- Title: dependencies Pages: 1 -->
<svg width="826pt" height="284pt"
 viewBox="0.00 0.00 826.00 284.00" xmlns="http://www.w3.org/2000/svg" xmlns:xlink="http://www.w3.org/1999/xlink">
<g id="graph0" class="graph" transform="scale(1 1) rotate(0) translate(4 280)">
<title>dependencies</title>
<polygon fill="#ffffff" stroke="transparent" points="-4,4 -4,-280 822,-280 822,4 -4,4"/>
<text text-anchor="start" x="388.0091" y="-42.4" font-family="sans-serif" font-weight="bold" font-size="14.00" fill="#000000">Legend</text>
<polygon fill="#ffffb3" stroke="transparent" points="175,-10 175,-30 195,-30 195,-10 175,-10"/>
<text text-anchor="start" x="198.629" y="-15.4" font-family="sans-serif" font-size="14.00" fill="#000000"> &#160;Declarations</text>
<polygon fill="#8dd3c7" stroke="transparent" points="288,-10 288,-30 308,-30 308,-10 288,-10"/>
<text text-anchor="start" x="311.7251" y="-15.4" font-family="sans-serif" font-size="14.00" fill="#000000"> &#160;Module</text>
<polygon fill="#80b1d3" stroke="transparent" points="374,-10 374,-30 394,-30 394,-10 374,-10"/>
<text text-anchor="start" x="397.7812" y="-15.4" font-family="sans-serif" font-size="14.00" fill="#000000"> &#160;Bootstrap</text>
<polygon fill="#fdb462" stroke="transparent" points="471,-10 471,-30 491,-30 491,-10 471,-10"/>
<text text-anchor="start" x="494.6732" y="-15.4" font-family="sans-serif" font-size="14.00" fill="#000000"> &#160;Providers</text>
<polygon fill="#fb8072" stroke="transparent" points="567,-10 567,-30 587,-30 587,-10 567,-10"/>
<text text-anchor="start" x="590.7258" y="-15.4" font-family="sans-serif" font-size="14.00" fill="#000000"> &#160;Exports</text>
<g id="clust1" class="cluster">
<title>cluster_AppModule</title>
<polygon fill="none" stroke="#000000" stroke-dasharray="1,5" points="8,-70 8,-268 810,-268 810,-70 8,-70"/>
</g>
<g id="clust2" class="cluster">
<title>cluster_AppModule_declarations</title>
<polygon fill="none" stroke="#000000" points="503,-78 503,-130 802,-130 802,-78 503,-78"/>
</g>
<g id="clust6" class="cluster">
<title>cluster_AppModule_imports</title>
<polygon fill="none" stroke="#000000" points="341,-78 341,-130 495,-130 495,-78 341,-78"/>
</g>
<g id="clust8" class="cluster">
<title>cluster_AppModule_bootstrap</title>
<polygon fill="none" stroke="#000000" points="448,-208 448,-260 536,-260 536,-208 448,-208"/>
</g>
<g id="clust9" class="cluster">
<title>cluster_AppModule_providers</title>
<polygon fill="none" stroke="#000000" points="16,-78 16,-130 333,-130 333,-78 16,-78"/>
</g>
<!-- MyApp -->
<g id="node1" class="node">
<title>MyApp</title>
<polygon fill="#ffffb3" stroke="#000000" points="793.5529,-122 734.4471,-122 734.4471,-86 793.5529,-86 793.5529,-122"/>
<text text-anchor="middle" x="764" y="-99.8" font-family="Times,serif" font-size="14.00" fill="#000000">MyApp</text>
</g>
<!-- AppModule -->
<g id="node4" class="node">
<title>AppModule</title>
<polygon fill="#8dd3c7" stroke="#000000" points="533.6571,-187 530.6571,-191 509.6571,-191 506.6571,-187 450.3429,-187 450.3429,-151 533.6571,-151 533.6571,-187"/>
<text text-anchor="middle" x="492" y="-164.8" font-family="Times,serif" font-size="14.00" fill="#000000">AppModule</text>
</g>
<!-- MyApp&#45;&gt;AppModule -->
<g id="edge1" class="edge">
<title>MyApp&#45;&gt;AppModule</title>
<path fill="none" stroke="#000000" d="M764,-122.2843C764,-143.3211 764,-175 764,-175 764,-175 543.9039,-175 543.9039,-175"/>
<polygon fill="#000000" stroke="#000000" points="543.9039,-171.5001 533.9039,-175 543.9039,-178.5001 543.9039,-171.5001"/>
</g>
<!-- Randoland -->
<g id="node2" class="node">
<title>Randoland</title>
<polygon fill="#ffffb3" stroke="#000000" points="716.1572,-122 639.8428,-122 639.8428,-86 716.1572,-86 716.1572,-122"/>
<text text-anchor="middle" x="678" y="-99.8" font-family="Times,serif" font-size="14.00" fill="#000000">Randoland</text>
</g>
<!-- Randoland&#45;&gt;AppModule -->
<g id="edge2" class="edge">
<title>Randoland&#45;&gt;AppModule</title>
<path fill="none" stroke="#000000" d="M678,-122.0225C678,-139.3734 678,-163 678,-163 678,-163 543.742,-163 543.742,-163"/>
<polygon fill="#000000" stroke="#000000" points="543.7421,-159.5001 533.742,-163 543.742,-166.5001 543.7421,-159.5001"/>
</g>
<!-- RandolandDetail -->
<g id="node3" class="node">
<title>RandolandDetail</title>
<polygon fill="#ffffb3" stroke="#000000" points="621.3641,-122 510.6359,-122 510.6359,-86 621.3641,-86 621.3641,-122"/>
<text text-anchor="middle" x="566" y="-99.8" font-family="Times,serif" font-size="14.00" fill="#000000">RandolandDetail</text>
</g>
<!-- RandolandDetail&#45;&gt;AppModule -->
<g id="edge3" class="edge">
<title>RandolandDetail&#45;&gt;AppModule</title>
<path fill="none" stroke="#000000" d="M522.1981,-122.1061C522.1981,-122.1061 522.1981,-140.991 522.1981,-140.991"/>
<polygon fill="#000000" stroke="#000000" points="518.6982,-140.9909 522.1981,-150.991 525.6982,-140.991 518.6982,-140.9909"/>
</g>
<!-- IonicApp  -->
<g id="node6" class="node">
<title>IonicApp </title>
<polygon fill="#80b1d3" stroke="#000000" points="528.3734,-252 455.6266,-252 455.6266,-216 528.3734,-216 528.3734,-252"/>
<text text-anchor="middle" x="492" y="-229.8" font-family="Times,serif" font-size="14.00" fill="#000000">IonicApp </text>
</g>
<!-- AppModule&#45;&gt;IonicApp  -->
<g id="edge5" class="edge">
<title>AppModule&#45;&gt;IonicApp </title>
<path fill="none" stroke="#000000" stroke-dasharray="1,5" d="M492,-187.1061C492,-187.1061 492,-205.991 492,-205.991"/>
<polygon fill="#000000" stroke="#000000" points="488.5001,-205.9909 492,-215.991 495.5001,-205.991 488.5001,-205.9909"/>
</g>
<!-- CurrentRandoModule -->
<g id="node5" class="node">
<title>CurrentRandoModule</title>
<polygon fill="#8dd3c7" stroke="#000000" points="487.3641,-122 484.3641,-126 463.3641,-126 460.3641,-122 348.6359,-122 348.6359,-86 487.3641,-86 487.3641,-122"/>
<text text-anchor="middle" x="418" y="-99.8" font-family="Times,serif" font-size="14.00" fill="#000000">CurrentRandoModule</text>
</g>
<!-- CurrentRandoModule&#45;&gt;AppModule -->
<g id="edge4" class="edge">
<title>CurrentRandoModule&#45;&gt;AppModule</title>
<path fill="none" stroke="#000000" d="M468.8019,-122.1061C468.8019,-122.1061 468.8019,-140.991 468.8019,-140.991"/>
<polygon fill="#000000" stroke="#000000" points="465.302,-140.9909 468.8019,-150.991 472.302,-140.991 465.302,-140.9909"/>
</g>
<!-- DataProvider -->
<g id="node7" class="node">
<title>DataProvider</title>
<ellipse fill="#fdb462" stroke="#000000" cx="262" cy="-104" rx="62.5373" ry="18"/>
<text text-anchor="middle" x="262" y="-99.8" font-family="Times,serif" font-size="14.00" fill="#000000">DataProvider</text>
</g>
<!-- DataProvider&#45;&gt;AppModule -->
<g id="edge6" class="edge">
<title>DataProvider&#45;&gt;AppModule</title>
<path fill="none" stroke="#000000" d="M262,-122.0225C262,-139.3734 262,-163 262,-163 262,-163 440.0819,-163 440.0819,-163"/>
<polygon fill="#000000" stroke="#000000" points="440.0819,-166.5001 450.0819,-163 440.0819,-159.5001 440.0819,-166.5001"/>
</g>
<!-- LocationProvider -->
<g id="node8" class="node">
<title>LocationProvider</title>
<ellipse fill="#fdb462" stroke="#000000" cx="103" cy="-104" rx="78.7318" ry="18"/>
<text text-anchor="middle" x="103" y="-99.8" font-family="Times,serif" font-size="14.00" fill="#000000">LocationProvider</text>
</g>
<!-- LocationProvider&#45;&gt;AppModule -->
<g id="edge7" class="edge">
<title>LocationProvider&#45;&gt;AppModule</title>
<path fill="none" stroke="#000000" d="M103,-122.2843C103,-143.3211 103,-175 103,-175 103,-175 440.0006,-175 440.0006,-175"/>
<polygon fill="#000000" stroke="#000000" points="440.0006,-178.5001 450.0006,-175 440.0006,-171.5001 440.0006,-178.5001"/>
</g>
</g>
</svg>
