<?xml version="1.0" encoding="UTF-8" standalone="no"?>
<!DOCTYPE svg PUBLIC "-//W3C//DTD SVG 1.1//EN"
 "http://www.w3.org/Graphics/SVG/1.1/DTD/svg11.dtd">
<!-- Generated by graphviz version 2.40.1 (20161225.0304)
 -->
<!-- Title: dependencies Pages: 1 -->
<svg width="1148pt" height="360pt"
 viewBox="0.00 0.00 1148.00 360.00" xmlns="http://www.w3.org/2000/svg" xmlns:xlink="http://www.w3.org/1999/xlink">
<g id="graph0" class="graph" transform="scale(1 1) rotate(0) translate(4 356)">
<title>dependencies</title>
<polygon fill="#ffffff" stroke="transparent" points="-4,4 -4,-356 1144,-356 1144,4 -4,4"/>
<text text-anchor="start" x="549.0091" y="-42.4" font-family="sans-serif" font-weight="bold" font-size="14.00" fill="#000000">Legend</text>
<polygon fill="#ffffb3" stroke="transparent" points="336,-10 336,-30 356,-30 356,-10 336,-10"/>
<text text-anchor="start" x="359.629" y="-15.4" font-family="sans-serif" font-size="14.00" fill="#000000"> &#160;Declarations</text>
<polygon fill="#8dd3c7" stroke="transparent" points="449,-10 449,-30 469,-30 469,-10 449,-10"/>
<text text-anchor="start" x="472.7251" y="-15.4" font-family="sans-serif" font-size="14.00" fill="#000000"> &#160;Module</text>
<polygon fill="#80b1d3" stroke="transparent" points="535,-10 535,-30 555,-30 555,-10 535,-10"/>
<text text-anchor="start" x="558.7812" y="-15.4" font-family="sans-serif" font-size="14.00" fill="#000000"> &#160;Bootstrap</text>
<polygon fill="#fdb462" stroke="transparent" points="632,-10 632,-30 652,-30 652,-10 632,-10"/>
<text text-anchor="start" x="655.6732" y="-15.4" font-family="sans-serif" font-size="14.00" fill="#000000"> &#160;Providers</text>
<polygon fill="#fb8072" stroke="transparent" points="728,-10 728,-30 748,-30 748,-10 728,-10"/>
<text text-anchor="start" x="751.7258" y="-15.4" font-family="sans-serif" font-size="14.00" fill="#000000"> &#160;Exports</text>
<g id="clust1" class="cluster">
<title>cluster_AppModule</title>
<polygon fill="none" stroke="#000000" stroke-dasharray="1,5" points="8,-146 8,-344 810,-344 810,-146 8,-146"/>
</g>
<g id="clust2" class="cluster">
<title>cluster_AppModule_declarations</title>
<polygon fill="none" stroke="#000000" points="503,-154 503,-206 802,-206 802,-154 503,-154"/>
</g>
<g id="clust6" class="cluster">
<title>cluster_AppModule_imports</title>
<polygon fill="none" stroke="#000000" points="341,-154 341,-206 495,-206 495,-154 341,-154"/>
</g>
<g id="clust8" class="cluster">
<title>cluster_AppModule_bootstrap</title>
<polygon fill="none" stroke="#000000" points="435,-284 435,-336 523,-336 523,-284 435,-284"/>
</g>
<g id="clust9" class="cluster">
<title>cluster_AppModule_providers</title>
<polygon fill="none" stroke="#000000" points="16,-154 16,-206 333,-206 333,-154 16,-154"/>
</g>
<g id="clust10" class="cluster">
<title>cluster_CurrentRandoModule</title>
<polygon fill="none" stroke="#000000" stroke-dasharray="1,5" points="354,-70 354,-138 482,-138 482,-70 354,-70"/>
</g>
<g id="clust11" class="cluster">
<title>cluster_CurrentRandoModule_declarations</title>
<polygon fill="none" stroke="#000000" points="362,-78 362,-130 474,-130 474,-78 362,-78"/>
</g>
<g id="clust17" class="cluster">
<title>cluster_RandolandDetailModule</title>
<polygon fill="none" stroke="#000000" stroke-dasharray="1,5" points="962,-219 962,-271 1132,-271 1132,-219 962,-219"/>
</g>
<g id="clust24" class="cluster">
<title>cluster_RandolandModule</title>
<polygon fill="none" stroke="#000000" stroke-dasharray="1,5" points="818,-219 818,-271 954,-271 954,-219 818,-219"/>
</g>
<!-- MyApp -->
<g id="node1" class="node">
<title>MyApp</title>
<polygon fill="#ffffb3" stroke="#000000" points="570.5529,-198 511.4471,-198 511.4471,-162 570.5529,-162 570.5529,-198"/>
<text text-anchor="middle" x="541" y="-175.8" font-family="Times,serif" font-size="14.00" fill="#000000">MyApp</text>
</g>
<!-- AppModule -->
<g id="node4" class="node">
<title>AppModule</title>
<polygon fill="#8dd3c7" stroke="#000000" points="520.6571,-263 517.6571,-267 496.6571,-267 493.6571,-263 437.3429,-263 437.3429,-227 520.6571,-227 520.6571,-263"/>
<text text-anchor="middle" x="479" y="-240.8" font-family="Times,serif" font-size="14.00" fill="#000000">AppModule</text>
</g>
<!-- MyApp&#45;&gt;AppModule -->
<g id="edge1" class="edge">
<title>MyApp&#45;&gt;AppModule</title>
<path fill="none" stroke="#000000" d="M516.0263,-198.1061C516.0263,-198.1061 516.0263,-216.991 516.0263,-216.991"/>
<polygon fill="#000000" stroke="#000000" points="512.5264,-216.9909 516.0263,-226.991 519.5264,-216.991 512.5264,-216.9909"/>
</g>
<!-- Randoland -->
<g id="node2" class="node">
<title>Randoland</title>
<polygon fill="#ffffb3" stroke="#000000" points="665.1572,-198 588.8428,-198 588.8428,-162 665.1572,-162 665.1572,-198"/>
<text text-anchor="middle" x="627" y="-175.8" font-family="Times,serif" font-size="14.00" fill="#000000">Randoland</text>
</g>
<!-- Randoland&#45;&gt;AppModule -->
<g id="edge2" class="edge">
<title>Randoland&#45;&gt;AppModule</title>
<path fill="none" stroke="#000000" d="M614.2239,-198.1061C614.2239,-217.3391 614.2239,-245 614.2239,-245 614.2239,-245 530.675,-245 530.675,-245"/>
<polygon fill="#000000" stroke="#000000" points="530.6751,-241.5001 520.675,-245 530.675,-248.5001 530.6751,-241.5001"/>
</g>
<!-- RandolandModule -->
<g id="node11" class="node">
<title>RandolandModule</title>
<polygon fill="#8dd3c7" stroke="#000000" points="946.2064,-263 943.2064,-267 922.2064,-267 919.2064,-263 825.7936,-263 825.7936,-227 946.2064,-227 946.2064,-263"/>
<text text-anchor="middle" x="886" y="-240.8" font-family="Times,serif" font-size="14.00" fill="#000000">RandolandModule</text>
</g>
<!-- Randoland&#45;&gt;RandolandModule -->
<g id="edge10" class="edge">
<title>Randoland&#45;&gt;RandolandModule</title>
<path fill="none" stroke="#000000" d="M639.7761,-198.027C639.7761,-214.3976 639.7761,-236 639.7761,-236 639.7761,-236 815.7668,-236 815.7668,-236"/>
<polygon fill="#000000" stroke="#000000" points="815.7669,-239.5001 825.7668,-236 815.7668,-232.5001 815.7669,-239.5001"/>
</g>
<!-- RandolandDetail -->
<g id="node3" class="node">
<title>RandolandDetail</title>
<polygon fill="#ffffb3" stroke="#000000" points="794.3641,-198 683.6359,-198 683.6359,-162 794.3641,-162 794.3641,-198"/>
<text text-anchor="middle" x="739" y="-175.8" font-family="Times,serif" font-size="14.00" fill="#000000">RandolandDetail</text>
</g>
<!-- RandolandDetail&#45;&gt;AppModule -->
<g id="edge3" class="edge">
<title>RandolandDetail&#45;&gt;AppModule</title>
<path fill="none" stroke="#000000" d="M739,-198.2921C739,-220.2057 739,-254 739,-254 739,-254 530.7735,-254 530.7735,-254"/>
<polygon fill="#000000" stroke="#000000" points="530.7735,-250.5001 520.7735,-254 530.7735,-257.5001 530.7735,-250.5001"/>
</g>
<!-- RandolandDetailModule -->
<g id="node10" class="node">
<title>RandolandDetailModule</title>
<polygon fill="#8dd3c7" stroke="#000000" points="1124.4144,-263 1121.4144,-267 1100.4144,-267 1097.4144,-263 969.5856,-263 969.5856,-227 1124.4144,-227 1124.4144,-263"/>
<text text-anchor="middle" x="1047" y="-240.8" font-family="Times,serif" font-size="14.00" fill="#000000">RandolandDetailModule</text>
</g>
<!-- RandolandDetail&#45;&gt;RandolandDetailModule -->
<g id="edge9" class="edge">
<title>RandolandDetail&#45;&gt;RandolandDetailModule</title>
<path fill="none" stroke="#000000" d="M794.4199,-180C883.0951,-180 1047,-180 1047,-180 1047,-180 1047,-216.8939 1047,-216.8939"/>
<polygon fill="#000000" stroke="#000000" points="1043.5001,-216.8938 1047,-226.8939 1050.5001,-216.8939 1043.5001,-216.8938"/>
</g>
<!-- IonicApp  -->
<g id="node6" class="node">
<title>IonicApp </title>
<polygon fill="#80b1d3" stroke="#000000" points="515.3734,-328 442.6266,-328 442.6266,-292 515.3734,-292 515.3734,-328"/>
<text text-anchor="middle" x="479" y="-305.8" font-family="Times,serif" font-size="14.00" fill="#000000">IonicApp </text>
</g>
<!-- AppModule&#45;&gt;IonicApp  -->
<g id="edge5" class="edge">
<title>AppModule&#45;&gt;IonicApp </title>
<path fill="none" stroke="#000000" stroke-dasharray="1,5" d="M479,-263.1061C479,-263.1061 479,-281.991 479,-281.991"/>
<polygon fill="#000000" stroke="#000000" points="475.5001,-281.9909 479,-291.991 482.5001,-281.991 475.5001,-281.9909"/>
</g>
<!-- CurrentRandoModule -->
<g id="node5" class="node">
<title>CurrentRandoModule</title>
<polygon fill="#8dd3c7" stroke="#000000" points="487.3641,-198 484.3641,-202 463.3641,-202 460.3641,-198 348.6359,-198 348.6359,-162 487.3641,-162 487.3641,-198"/>
<text text-anchor="middle" x="418" y="-175.8" font-family="Times,serif" font-size="14.00" fill="#000000">CurrentRandoModule</text>
</g>
<!-- CurrentRandoModule&#45;&gt;AppModule -->
<g id="edge4" class="edge">
<title>CurrentRandoModule&#45;&gt;AppModule</title>
<path fill="none" stroke="#000000" d="M462.3019,-198.1061C462.3019,-198.1061 462.3019,-216.991 462.3019,-216.991"/>
<polygon fill="#000000" stroke="#000000" points="458.802,-216.9909 462.3019,-226.991 465.802,-216.991 458.802,-216.9909"/>
</g>
<!-- DataProvider -->
<g id="node7" class="node">
<title>DataProvider</title>
<ellipse fill="#fdb462" stroke="#000000" cx="262" cy="-180" rx="62.5373" ry="18"/>
<text text-anchor="middle" x="262" y="-175.8" font-family="Times,serif" font-size="14.00" fill="#000000">DataProvider</text>
</g>
<!-- DataProvider&#45;&gt;AppModule -->
<g id="edge6" class="edge">
<title>DataProvider&#45;&gt;AppModule</title>
<path fill="none" stroke="#000000" d="M262,-198.0225C262,-215.3734 262,-239 262,-239 262,-239 427.1602,-239 427.1602,-239"/>
<polygon fill="#000000" stroke="#000000" points="427.1603,-242.5001 437.1602,-239 427.1602,-235.5001 427.1603,-242.5001"/>
</g>
<!-- LocationProvider -->
<g id="node8" class="node">
<title>LocationProvider</title>
<ellipse fill="#fdb462" stroke="#000000" cx="103" cy="-180" rx="78.7318" ry="18"/>
<text text-anchor="middle" x="103" y="-175.8" font-family="Times,serif" font-size="14.00" fill="#000000">LocationProvider</text>
</g>
<!-- LocationProvider&#45;&gt;AppModule -->
<g id="edge7" class="edge">
<title>LocationProvider&#45;&gt;AppModule</title>
<path fill="none" stroke="#000000" d="M103,-198.2843C103,-219.3211 103,-251 103,-251 103,-251 427.3248,-251 427.3248,-251"/>
<polygon fill="#000000" stroke="#000000" points="427.3248,-254.5001 437.3248,-251 427.3248,-247.5001 427.3248,-254.5001"/>
</g>
<!-- CurrentRando -->
<g id="node9" class="node">
<title>CurrentRando</title>
<polygon fill="#ffffb3" stroke="#000000" points="465.8147,-122 370.1853,-122 370.1853,-86 465.8147,-86 465.8147,-122"/>
<text text-anchor="middle" x="418" y="-99.8" font-family="Times,serif" font-size="14.00" fill="#000000">CurrentRando</text>
</g>
<!-- CurrentRando&#45;&gt;CurrentRandoModule -->
<g id="edge8" class="edge">
<title>CurrentRando&#45;&gt;CurrentRandoModule</title>
<path fill="none" stroke="#000000" d="M418,-122.0109C418,-122.0109 418,-151.855 418,-151.855"/>
<polygon fill="#000000" stroke="#000000" points="414.5001,-151.8549 418,-161.855 421.5001,-151.855 414.5001,-151.8549"/>
</g>
</g>
</svg>
